<svg xmlns="http://www.w3.org/2000/svg" xmlns:xlink="http://www.w3.org/1999/xlink" viewBox="0,0,300,150" width="64px" height="64px" fill-rule="nonzero"><g fill="#6d28d9" fill-rule="nonzero" stroke="none" stroke-width="1" stroke-linecap="butt" stroke-linejoin="miter" stroke-miterlimit="10" stroke-dasharray="" stroke-dashoffset="0" font-family="none" font-weight="none" font-size="none" text-anchor="none" style="mix-blend-mode: normal"><g transform="scale(4,4)"><path d="M12,8c-2.209,0 -4,1.791 -4,4v32c0,2.209 1.791,4 4,4h32c2.209,0 4,-1.791 4,-4v-32c0,-2.209 -1.791,-4 -4,-4zM51,16v30c0,2.761 -2.239,5 -5,5h-30v1c0,2.209 1.791,4 4,4h32c2.209,0 4,-1.791 4,-4v-32c0,-2.209 -1.791,-4 -4,-4zM38.96094,18l3.03906,3l-17,17l-11,-11l2,-3l9,6z"></path></g></g></svg>