<svg xmlns="http://www.w3.org/2000/svg" xmlns:xlink="http://www.w3.org/1999/xlink" viewBox="0,0,256,256" width="96px" height="96px" fill-rule="nonzero"><g fill-opacity="0.76863" fill="#6d28d9" fill-rule="nonzero" stroke="none" stroke-width="1" stroke-linecap="butt" stroke-linejoin="miter" stroke-miterlimit="10" stroke-dasharray="" stroke-dashoffset="0" font-family="none" font-weight="none" font-size="none" text-anchor="none" style="mix-blend-mode: normal"><g transform="scale(5.33333,5.33333)"><path d="M8.5,4c-2.4675,0 -4.5,2.0325 -4.5,4.5v2.60547c-0.00765,0.54095 0.27656,1.04412 0.74381,1.31683c0.46725,0.27271 1.04514,0.27271 1.51238,0c0.46725,-0.27271 0.75146,-0.77588 0.74381,-1.31683v-2.60547c0,-0.8465 0.6535,-1.5 1.5,-1.5h26c0.8465,0 1.5,0.6535 1.5,1.5v19.07422c-0.00765,0.54095 0.27656,1.04412 0.74381,1.31683c0.46725,0.27271 1.04514,0.27271 1.51238,0c0.46725,-0.27271 0.75146,-0.77588 0.74381,-1.31683v-19.07422c0,-2.4675 -2.0325,-4.5 -4.5,-4.5zM42.47656,11.97852c-0.82766,0.01293 -1.48843,0.69381 -1.47656,1.52148v26c0,0.8465 -0.6535,1.5 -1.5,1.5h-26c-0.8465,0 -1.5,-0.6535 -1.5,-1.5v-0.5h22.5c2.4675,0 4.5,-2.0325 4.5,-4.5v-1.56445c0.00765,-0.54095 -0.27656,-1.04412 -0.74381,-1.31683c-0.46725,-0.27271 -1.04514,-0.27271 -1.51238,0c-0.46725,0.27271 -0.75146,0.77588 -0.74381,1.31683v1.56445c0,0.8465 -0.6535,1.5 -1.5,1.5h-23.75391c-0.16103,-0.02645 -0.3253,-0.02645 -0.48633,0h-1.75977c-0.8465,0 -1.5,-0.6535 -1.5,-1.5v-18.28711c0.00582,-0.40562 -0.15288,-0.7963 -0.43991,-1.08296c-0.28703,-0.28666 -0.67792,-0.44486 -1.08353,-0.43852c-0.82766,0.01293 -1.48844,0.69381 -1.47656,1.52148v18.28711c0,2.4675 2.0325,4.5 4.5,4.5h0.5v0.5c0,2.4675 2.0325,4.5 4.5,4.5h26c2.4675,0 4.5,-2.0325 4.5,-4.5v-26c0.00582,-0.40562 -0.15288,-0.7963 -0.43991,-1.08296c-0.28703,-0.28666 -0.67792,-0.44486 -1.08353,-0.43852z"></path></g></g></svg>